<?xml version="1.0" encoding="UTF-8"?>
<svg xmlns="http://www.w3.org/2000/svg" xmlns:xlink="http://www.w3.org/1999/xlink" width="16pt" height="16pt" viewBox="0 0 16 16" version="1.1">
<g id="surface1">
<path style=" stroke:none;fill-rule:nonzero;fill:rgb(100%,100%,100%);fill-opacity:1;" d="M 2.398438 0 L 13.601562 0 C 14.925781 0 16 1.074219 16 2.398438 L 16 13.601562 C 16 14.925781 14.925781 16 13.601562 16 L 2.398438 16 C 1.074219 16 0 14.925781 0 13.601562 L 0 2.398438 C 0 1.074219 1.074219 0 2.398438 0 Z M 2.398438 0 "/>
<path style=" stroke:none;fill-rule:nonzero;fill:rgb(10.196078%,9.803922%,9.411765%);fill-opacity:1;" d="M 14.78125 8 C 14.78125 11.746094 11.746094 14.78125 8 14.78125 C 4.253906 14.78125 1.21875 11.746094 1.21875 8 C 1.21875 4.253906 4.253906 1.21875 8 1.21875 C 11.746094 1.21875 14.78125 4.253906 14.78125 8 Z M 14.78125 8 "/>
<path style=" stroke:none;fill-rule:nonzero;fill:rgb(100%,100%,100%);fill-opacity:1;" d="M 8.117188 5.355469 L 9.871094 9.695312 L 7.214844 7.601562 L 8.117188 5.351562 Z M 11.242188 10.695312 L 8.53125 4.183594 C 8.46875 4.007812 8.300781 3.894531 8.113281 3.898438 C 7.925781 3.898438 7.757812 3.996094 7.679688 4.183594 L 4.710938 11.328125 L 5.726562 11.328125 L 6.902344 8.382812 L 10.414062 11.21875 C 10.554688 11.335938 10.65625 11.382812 10.789062 11.382812 C 11.054688 11.382812 11.289062 11.1875 11.289062 10.898438 C 11.289062 10.851562 11.269531 10.777344 11.238281 10.699219 Z M 11.242188 10.695312 "/>
</g>
</svg>
