<?xml version="1.0" encoding="UTF-8"?>
<svg xmlns="http://www.w3.org/2000/svg" xmlns:xlink="http://www.w3.org/1999/xlink" width="16pt" height="16pt" viewBox="0 0 16 16" version="1.1">
<g id="surface1">
<path style=" stroke:none;fill-rule:nonzero;fill:rgb(6.666667%,19.607843%,15.686275%);fill-opacity:1;" d="M 2.398438 0 L 13.601562 0 C 14.925781 0 16 1.074219 16 2.398438 L 16 13.601562 C 16 14.925781 14.925781 16 13.601562 16 L 2.398438 16 C 1.074219 16 0 14.925781 0 13.601562 L 0 2.398438 C 0 1.074219 1.074219 0 2.398438 0 Z M 2.398438 0 "/>
<path style=" stroke:none;fill-rule:nonzero;fill:rgb(100%,100%,100%);fill-opacity:1;" d="M 7.09375 3.15625 L 8.84375 3.15625 L 8.84375 11.1875 C 7.9375 11.34375 7.28125 11.4375 6.5625 11.4375 C 4.40625 11.4375 3.3125 10.46875 3.3125 8.625 C 3.3125 6.84375 4.46875 5.71875 6.3125 5.71875 C 6.59375 5.71875 6.8125 5.71875 7.09375 5.78125 Z M 7.09375 7.1875 C 6.875 7.125 6.71875 7.09375 6.5 7.09375 C 5.59375 7.09375 5.09375 7.65625 5.09375 8.59375 C 5.09375 9.53125 5.5625 10.03125 6.46875 10.03125 C 6.65625 10.03125 6.8125 10.03125 7.09375 9.96875 Z M 11.625 5.8125 L 11.625 9.84375 C 11.625 11.25 11.53125 11.90625 11.21875 12.46875 C 10.9375 13.03125 10.5625 13.375 9.78125 13.78125 L 8.15625 13 C 8.9375 12.65625 9.3125 12.3125 9.53125 11.84375 C 9.78125 11.34375 9.875 10.78125 9.875 9.25 L 9.875 5.8125 Z M 9.875 3.15625 L 11.625 3.15625 L 11.625 4.9375 L 9.875 4.9375 Z M 9.875 3.15625 "/>
</g>
</svg>
