<?xml version="1.0" encoding="UTF-8"?>
<svg xmlns="http://www.w3.org/2000/svg" xmlns:xlink="http://www.w3.org/1999/xlink" width="16pt" height="16pt" viewBox="0 0 16 16" version="1.1">
<g id="surface1">
<path style=" stroke:none;fill-rule:nonzero;fill:rgb(100%,100%,100%);fill-opacity:1;" d="M 2.398438 0 L 13.601562 0 C 14.925781 0 16 1.074219 16 2.398438 L 16 13.601562 C 16 14.925781 14.925781 16 13.601562 16 L 2.398438 16 C 1.074219 16 0 14.925781 0 13.601562 L 0 2.398438 C 0 1.074219 1.074219 0 2.398438 0 Z M 2.398438 0 "/>
<path style="fill-rule:nonzero;fill:rgb(0%,0%,0%);fill-opacity:1;stroke-width:38;stroke-linecap:butt;stroke-linejoin:miter;stroke:rgb(2.352941%,42.745098%,64.705882%);stroke-opacity:1;stroke-miterlimit:4;" d="M 296 226 L 338 226 M 246 226 L 288 226 M 197 226 L 239 226 M 148 226 L 189 226 M 98 226 L 140 226 M 148 180 L 189 180 M 197 180 L 239 180 M 246 180 L 288 180 M 246 134 L 288 134 " transform="matrix(0.03125,0,0,0.03125,0,0)"/>
<path style=" stroke:none;fill-rule:nonzero;fill:rgb(2.352941%,42.745098%,64.705882%);fill-opacity:1;" d="M 14.75 7.125 C 14.75 7.125 14.1875 6.59375 13.03125 6.78125 C 12.90625 5.875 11.9375 5.34375 11.9375 5.34375 C 11.9375 5.34375 11.03125 6.4375 11.6875 7.65625 C 11.5 7.75 11.1875 7.875 10.71875 7.875 L 2.125 7.875 C 1.96875 8.46875 1.96875 12.40625 6.28125 12.40625 C 9.375 12.40625 11.6875 10.96875 12.78125 8.34375 C 14.40625 8.46875 14.75 7.125 14.75 7.125 "/>
</g>
</svg>
