<?xml version="1.0" encoding="UTF-8"?>
<svg xmlns="http://www.w3.org/2000/svg" xmlns:xlink="http://www.w3.org/1999/xlink" width="16pt" height="16pt" viewBox="0 0 16 16" version="1.1">
<g id="surface1">
<path style=" stroke:none;fill-rule:nonzero;fill:rgb(96.862745%,87.45098%,11.764706%);fill-opacity:1;" d="M 2.398438 0 L 13.601562 0 C 14.925781 0 16 1.074219 16 2.398438 L 16 13.601562 C 16 14.925781 14.925781 16 13.601562 16 L 2.398438 16 C 1.074219 16 0 14.925781 0 13.601562 L 0 2.398438 C 0 1.074219 1.074219 0 2.398438 0 Z M 2.398438 0 "/>
<path style=" stroke:none;fill-rule:nonzero;fill:rgb(0%,0%,0%);fill-opacity:1;" d="M 10.125 11.5625 C 10.4375 12.09375 10.875 12.46875 11.59375 12.46875 C 12.21875 12.46875 12.625 12.15625 12.625 11.71875 C 12.625 11.21875 12.21875 11.03125 11.53125 10.71875 L 11.15625 10.5625 C 10.0625 10.09375 9.34375 9.53125 9.34375 8.3125 C 9.34375 7.1875 10.1875 6.3125 11.53125 6.3125 C 12.5 6.3125 13.1875 6.65625 13.65625 7.53125 L 12.5 8.28125 C 12.25 7.8125 11.96875 7.625 11.53125 7.625 C 11.09375 7.625 10.8125 7.90625 10.8125 8.28125 C 10.8125 8.71875 11.09375 8.90625 11.75 9.1875 L 12.125 9.34375 C 13.40625 9.90625 14.125 10.4375 14.125 11.71875 C 14.125 13.0625 13.0625 13.8125 11.625 13.8125 C 10.21875 13.8125 9.3125 13.15625 8.875 12.28125 Z M 4.8125 11.6875 C 5.0625 12.09375 5.25 12.46875 5.78125 12.46875 C 6.28125 12.46875 6.59375 12.28125 6.59375 11.53125 L 6.59375 6.34375 L 8.09375 6.34375 L 8.09375 11.46875 C 8.09375 13.03125 7.1875 13.71875 5.84375 13.71875 C 4.625 13.71875 3.9375 13.09375 3.59375 12.34375 Z M 4.8125 11.6875 "/>
</g>
</svg>
