<?xml version="1.0" encoding="UTF-8"?>
<svg xmlns="http://www.w3.org/2000/svg" xmlns:xlink="http://www.w3.org/1999/xlink" width="16pt" height="16pt" viewBox="0 0 16 16" version="1.1">
<g id="surface1">
<path style=" stroke:none;fill-rule:nonzero;fill:rgb(100%,100%,100%);fill-opacity:1;" d="M 2.398438 0 L 13.601562 0 C 14.925781 0 16 1.074219 16 2.398438 L 16 13.601562 C 16 14.925781 14.925781 16 13.601562 16 L 2.398438 16 C 1.074219 16 0 14.925781 0 13.601562 L 0 2.398438 C 0 1.074219 1.074219 0 2.398438 0 Z M 2.398438 0 "/>
<path style=" stroke:none;fill-rule:nonzero;fill:rgb(15.686275%,15.686275%,15.686275%);fill-opacity:1;" d="M 6.28125 2.5 L 6.96875 1.53125 L 7.53125 1.84375 C 7.25 2.40625 7.28125 2.59375 7.28125 2.65625 C 7.53125 2.5625 9.8125 2.96875 9.125 5.15625 C 9.125 5.15625 10.5 5.53125 11.5 6.9375 C 12.40625 8.15625 11.84375 10.1875 9.71875 9.5625 C 7.90625 9.03125 6.25 9.15625 4.1875 10.8125 L 5.1875 8.28125 L 2.71875 11.46875 C 2.625 8.375 3.03125 7.09375 5.1875 5.53125 C 4.46875 5.5 3.90625 4.96875 3.9375 4.34375 L 4 3.5 C 4.03125 2.90625 4.53125 2.40625 5.15625 2.4375 C 5.1875 2.40625 6.28125 2.46875 6.28125 2.5 Z M 7.40625 5.5 C 7.25 5.3125 6.9375 5.53125 7.125 5.71875 L 7.78125 6.5 L 7.46875 6.75 C 7.40625 6.8125 7.375 6.90625 7.4375 6.96875 L 7.5 7.0625 C 7.59375 7.15625 7.6875 7.0625 7.6875 7.0625 L 8 6.78125 L 8.3125 7.09375 L 7.625 7.625 C 7.5625 7.6875 7.5625 7.78125 7.59375 7.84375 L 7.875 8.1875 C 7.9375 8.25 8.03125 8.25 8.09375 8.21875 L 8.78125 7.6875 L 8.96875 7.90625 C 9.125 8.09375 9.40625 7.875 9.25 7.6875 Z M 5.84375 3.3125 L 5.1875 3.25 C 5.03125 3.25 4.875 3.375 4.84375 3.53125 L 4.8125 4.375 C 4.8125 4.5625 4.9375 4.6875 5.09375 4.6875 L 5.59375 4.71875 C 5.5625 4.53125 5.71875 3.59375 5.84375 3.3125 Z M 5.84375 3.3125 "/>
<path style=" stroke:none;fill-rule:nonzero;fill:rgb(15.686275%,15.686275%,15.686275%);fill-opacity:1;" d="M 7.15625 10.875 C 7.15625 11.117188 6.960938 11.3125 6.71875 11.3125 C 6.476562 11.3125 6.28125 11.117188 6.28125 10.875 C 6.28125 10.632812 6.476562 10.4375 6.71875 10.4375 C 6.960938 10.4375 7.15625 10.632812 7.15625 10.875 Z M 7.15625 10.875 "/>
<path style=" stroke:none;fill-rule:nonzero;fill:rgb(15.686275%,15.686275%,15.686275%);fill-opacity:1;" d="M 9.75 10.875 C 9.75 11.117188 9.554688 11.3125 9.3125 11.3125 C 9.070312 11.3125 8.875 11.117188 8.875 10.875 C 8.875 10.632812 9.070312 10.4375 9.3125 10.4375 C 9.554688 10.4375 9.75 10.632812 9.75 10.875 Z M 9.75 10.875 "/>
</g>
</svg>
