<?xml version="1.0" encoding="UTF-8"?>
<svg xmlns="http://www.w3.org/2000/svg" xmlns:xlink="http://www.w3.org/1999/xlink" width="16pt" height="16pt" viewBox="0 0 16 16" version="1.1">
<g id="surface1">
<path style=" stroke:none;fill-rule:nonzero;fill:rgb(100%,100%,100%);fill-opacity:1;" d="M 2.398438 0 L 13.601562 0 C 14.925781 0 16 1.074219 16 2.398438 L 16 13.601562 C 16 14.925781 14.925781 16 13.601562 16 L 2.398438 16 C 1.074219 16 0 14.925781 0 13.601562 L 0 2.398438 C 0 1.074219 1.074219 0 2.398438 0 Z M 2.398438 0 "/>
<path style=" stroke:none;fill-rule:nonzero;fill:rgb(20%,20%,20%);fill-opacity:1;" d="M 6 6.4375 C 5.8125 6.875 4.5 8.25 4.625 9.625 C 5.125 15.375 6.875 11.5 9.5 12.9375 C 9.5 12.9375 14.1875 10.3125 10.4375 6.0625 C 9.375 4.5625 10.3125 3.375 9.625 2.375 C 8.9375 1.375 7.75 1.3125 6.875 2.25 C 6 3.1875 7.25 4.5625 6 6.4375 "/>
<path style=" stroke:none;fill-rule:nonzero;fill:rgb(93.333333%,93.333333%,93.333333%);fill-opacity:1;" d="M 10.625 9.3125 C 10.625 9.3125 11.1875 8.1875 10.125 7.375 C 11.125 8.4375 10.5 9.375 10.5 9.375 L 10.3125 9.375 C 10.25 7.1875 9.6875 8.375 8.875 4.5 C 9.8125 3.4375 8 2.5 8 4.25 L 7.4375 4.25 C 7.5 2.75 6.1875 3.5 6.9375 4.5625 C 6.875 6.875 5.5 7.8125 5.5 9.4375 C 5.0625 8.3125 5.875 7.4375 5.875 7.4375 C 5.875 7.4375 4.75 8.375 5.4375 9.75 C 6.125 11.125 7.375 10.8125 6.5 11.4375 C 7.875 12.375 10 11.75 9.9375 9.75 C 10 9.25 11.3125 9.4375 11.4375 9.5625 C 11.5625 9.6875 11.25 9.3125 10.625 9.3125 M 7.125 4.4375 C 6.6875 4.3125 6.8125 3.75 7 3.75 C 7.1875 3.75 7.5 4.1875 7.125 4.4375 M 8.3125 4.5 C 8 4.0625 8.25 3.625 8.5625 3.6875 C 8.875 3.75 8.875 4.5 8.3125 4.5 "/>
<path style="fill-rule:nonzero;fill:rgb(100%,80%,13.333333%);fill-opacity:1;stroke-width:1;stroke-linecap:butt;stroke-linejoin:miter;stroke:rgb(20%,20%,20%);stroke-opacity:1;stroke-miterlimit:4;" d="M -41 31 L -20 61 C -9 68 -15 96 -45 82 C -62 77 -76 78 -78 69 C -80 60 -74 59 -75 55 C -79 33 -61 44 -56 33 C -51 22 -51 17 -41 31 M 71 45 C 67 39 71 28 57 29 C 51 41 34 53 33 29 C 23 29 30 53 26 64 C 17 91 43 93 54 80 L 80 62 C 82 59 85 56 71 45 M -21 -47 C -24 -53 -10 -61 -5 -61 C 0 -61 7 -57 14 -55 C 21 -53 18 -46 16 -45 C 14 -44 3 -35 -5 -35 C -13 -35 -15 -43 -21 -47 " transform="matrix(0.0625,0,0,0.0625,8,8)"/>
<path style="fill-rule:nonzero;fill:rgb(100%,80%,13.333333%);fill-opacity:1;stroke-width:1;stroke-linecap:butt;stroke-linejoin:miter;stroke:rgb(20%,20%,20%);stroke-opacity:1;stroke-miterlimit:4;" d="M -21 -48 C -13 -42 -4 -37 14 -51 " transform="matrix(0.0625,0,0,0.0625,8,8)"/>
<path style=" stroke:none;fill-rule:nonzero;fill:rgb(20%,20%,20%);fill-opacity:1;" d="M 7.375 4.625 C 7.25 4.625 7.4375 4.5 7.5 4.5625 M 7.9375 4.625 C 8 4.5625 7.875 4.5 7.75 4.5625 "/>
</g>
</svg>
