<?xml version="1.0" encoding="UTF-8"?>
<svg xmlns="http://www.w3.org/2000/svg" xmlns:xlink="http://www.w3.org/1999/xlink" width="20px" height="20px" viewBox="0 0 20 20" version="1.1">
<defs>
<linearGradient id="linear0" gradientUnits="userSpaceOnUse" x1="0" y1="0" x2="1" y2="1" gradientTransform="matrix(12.304688,0,0,12.773437,3.90625,3.515625)">
<stop offset="0" style="stop-color:rgb(38.823529%,39.215686%,100%);stop-opacity:1;"/>
<stop offset="1" style="stop-color:rgb(33.72549%,22.745098%,80%);stop-opacity:1;"/>
</linearGradient>
</defs>
<g id="surface1">
<path style=" stroke:none;fill-rule:nonzero;fill:rgb(100%,100%,100%);fill-opacity:1;" d="M 3 0 L 17 0 C 18.65625 0 20 1.34375 20 3 L 20 17 C 20 18.65625 18.65625 20 17 20 L 3 20 C 1.34375 20 0 18.65625 0 17 L 0 3 C 0 1.34375 1.34375 0 3 0 Z M 3 0 "/>
<path style=" stroke:none;fill-rule:nonzero;fill:url(#linear0);" d="M 12.382812 14.882812 C 9.152344 15.613281 7.550781 15.105469 7.578125 13.359375 C 9.375 13.75 11.316406 13.777344 13.398438 13.4375 C 15.144531 13.097656 16.082031 12.058594 16.210938 10.3125 C 16.289062 7.683594 16.25 6.171875 16.09375 5.78125 C 15.597656 4.503906 14.660156 3.75 13.28125 3.515625 C 10.730469 3.253906 8.621094 3.253906 6.953125 3.515625 C 5.496094 3.777344 4.519531 4.53125 4.023438 5.78125 C 3.710938 6.589844 3.671875 8.503906 3.90625 11.523438 C 3.984375 12.355469 4.101562 13.046875 4.257812 13.59375 C 4.597656 14.792969 5.507812 15.691406 6.992188 16.289062 C 9.152344 16.886719 10.949219 16.769531 12.382812 15.9375 "/>
<path style=" stroke:none;fill-rule:nonzero;fill:rgb(100%,100%,100%);fill-opacity:1;" d="M 14.0625 11.445312 L 12.65625 11.445312 L 12.65625 7.8125 C 12.628906 7.136719 12.253906 6.835938 11.523438 6.914062 C 11.003906 6.992188 10.742188 7.433594 10.742188 8.242188 L 10.742188 10.078125 L 9.335938 10.078125 L 9.335938 8.242188 C 9.335938 7.433594 9.074219 6.992188 8.554688 6.914062 C 7.773438 6.835938 7.382812 7.199219 7.382812 8.007812 L 7.382812 11.445312 L 5.976562 11.445312 L 5.976562 7.890625 C 6.003906 6.5625 6.574219 5.78125 7.695312 5.546875 C 8.554688 5.417969 9.21875 5.691406 9.6875 6.367188 L 10.039062 6.953125 L 10.390625 6.367188 C 10.808594 5.691406 11.472656 5.417969 12.382812 5.546875 C 13.503906 5.78125 14.0625 6.5625 14.0625 7.890625 "/>
</g>
</svg>
