<?xml version="1.0" encoding="UTF-8"?>
<svg xmlns="http://www.w3.org/2000/svg" xmlns:xlink="http://www.w3.org/1999/xlink" width="16pt" height="16pt" viewBox="0 0 16 16" version="1.1">
<g id="surface1">
<path style=" stroke:none;fill-rule:nonzero;fill:rgb(46.666667%,48.235294%,70.196078%);fill-opacity:1;" d="M 2.398438 0 L 13.601562 0 C 14.925781 0 16 1.074219 16 2.398438 L 16 13.601562 C 16 14.925781 14.925781 16 13.601562 16 L 2.398438 16 C 1.074219 16 0 14.925781 0 13.601562 L 0 2.398438 C 0 1.074219 1.074219 0 2.398438 0 Z M 2.398438 0 "/>
<path style="fill-rule:nonzero;fill:rgb(0%,0%,0%);fill-opacity:1;stroke-width:6;stroke-linecap:butt;stroke-linejoin:miter;stroke:rgb(100%,100%,100%);stroke-opacity:1;stroke-miterlimit:4;" d="M 155 202 L 97 202 C 95.625 201.875 94.5 202.75 94 204 L 67 345 C 67 348 70 348 70 348 L 100 348 C 103 348 103 346 103 346 L 110 311 L 137 311 C 179 311 200 283 205 258 C 210 233 206 202 155 202 Z M 168 256 C 164 275 151 283 133 283 L 115 283 L 126 230 L 144 230 C 171 230 170 240 168 256 Z M 168 256 " transform="matrix(0.03125,0,0,0.03125,0,0)"/>
<path style="fill-rule:nonzero;fill:rgb(0%,0%,0%);fill-opacity:1;stroke-width:6;stroke-linecap:butt;stroke-linejoin:miter;stroke:rgb(100%,100%,100%);stroke-opacity:1;stroke-miterlimit:4;" d="M 275 311 C 271 311 272 307 272 307 L 284 246 C 284 238 290 230 266 231 L 248 231 L 233 309 C 233 309 233 312 229 312 L 200 312 C 197 312 197 309 197 309 L 225 168 C 225 168 225 166 229 166 L 259 166 C 262 166 261 169 261 169 L 254 203 L 280 203 C 316 203 325 220 322 240 L 309 309 C 309 309 309 312 304 312 Z M 275 311 " transform="matrix(0.03125,0,0,0.03125,0,0)"/>
<path style="fill-rule:nonzero;fill:rgb(0%,0%,0%);fill-opacity:1;stroke-width:6;stroke-linecap:butt;stroke-linejoin:miter;stroke:rgb(100%,100%,100%);stroke-opacity:1;stroke-miterlimit:4;" d="M 155 202 L 97 202 C 95.625 201.875 94.5 202.75 94 204 L 67 345 C 67 348 70 348 70 348 L 100 348 C 103 348 103 346 103 346 L 110 311 L 137 311 C 179 311 200 283 205 258 C 210 233 206 202 155 202 Z M 168 256 C 164 275 151 283 133 283 L 115 283 L 126 230 L 144 230 C 171 230 170 240 168 256 Z M 168 256 " transform="matrix(0.03125,0,0,0.03125,7.46875,0)"/>
</g>
</svg>
