<?xml version="1.0" encoding="UTF-8"?>
<svg xmlns="http://www.w3.org/2000/svg" xmlns:xlink="http://www.w3.org/1999/xlink" width="16pt" height="16pt" viewBox="0 0 16 16" version="1.1">
<g id="surface1">
<path style=" stroke:none;fill-rule:nonzero;fill:rgb(100%,100%,100%);fill-opacity:1;" d="M 2.398438 0 L 13.601562 0 C 14.925781 0 16 1.074219 16 2.398438 L 16 13.601562 C 16 14.925781 14.925781 16 13.601562 16 L 2.398438 16 C 1.074219 16 0 14.925781 0 13.601562 L 0 2.398438 C 0 1.074219 1.074219 0 2.398438 0 Z M 2.398438 0 "/>
<path style=" stroke:none;fill-rule:nonzero;fill:rgb(35.294118%,62.352941%,83.137255%);fill-opacity:1;" d="M 7.9375 2 C 7.4375 2 6.96875 2.03125 6.5625 2.125 C 5.34375 2.34375 5.125 2.78125 5.125 3.59375 L 5.125 4.6875 L 8 4.6875 L 8 5.0625 L 4.0625 5.0625 C 3.21875 5.0625 2.5 5.5625 2.25 6.5 C 2 7.59375 2 8.28125 2.25 9.40625 C 2.46875 10.28125 2.96875 10.875 3.78125 10.875 L 4.78125 10.875 L 4.78125 9.5625 C 4.78125 8.625 5.59375 7.78125 6.5625 7.78125 L 9.40625 7.78125 C 10.21875 7.78125 10.84375 7.125 10.84375 6.34375 L 10.84375 3.59375 C 10.84375 2.84375 10.1875 2.25 9.40625 2.125 C 8.9375 2.03125 8.40625 2 7.9375 2 Z M 6.375 2.875 C 6.6875 2.875 6.90625 3.125 6.90625 3.4375 C 6.90625 3.71875 6.6875 3.96875 6.375 3.96875 C 6.09375 3.96875 5.84375 3.71875 5.84375 3.4375 C 5.84375 3.125 6.09375 2.875 6.375 2.875 Z M 6.375 2.875 "/>
<path style=" stroke:none;fill-rule:nonzero;fill:rgb(100%,83.137255%,23.137255%);fill-opacity:1;" d="M 8.0625 13.9375 C 8.5625 13.9375 9.03125 13.90625 9.4375 13.8125 C 10.65625 13.59375 10.875 13.15625 10.875 12.34375 L 10.875 11.25 L 8 11.25 L 8 10.875 L 11.9375 10.875 C 12.78125 10.875 13.5 10.375 13.75 9.4375 C 14 8.34375 14 7.65625 13.75 6.53125 C 13.53125 5.65625 13.03125 5.0625 12.21875 5.0625 L 11.21875 5.0625 L 11.21875 6.375 C 11.21875 7.3125 10.40625 8.15625 9.4375 8.15625 L 6.59375 8.15625 C 5.78125 8.15625 5.15625 8.8125 5.15625 9.59375 L 5.15625 12.34375 C 5.15625 13.09375 5.8125 13.6875 6.59375 13.8125 C 7.0625 13.90625 7.59375 13.9375 8.0625 13.9375 Z M 9.625 13.0625 C 9.3125 13.0625 9.09375 12.8125 9.09375 12.5 C 9.09375 12.21875 9.3125 11.96875 9.625 11.96875 C 9.90625 11.96875 10.15625 12.21875 10.15625 12.5 C 10.15625 12.8125 9.90625 13.0625 9.625 13.0625 Z M 9.625 13.0625 "/>
</g>
</svg>
